<?xml version="1.0" encoding="utf-8"?>
<!-- Generator: Adobe Illustrator 27.9.0, SVG Export Plug-In . SVG Version: 6.00 Build 0)  -->
<svg version="1.1" id="Layer_1" xmlns="http://www.w3.org/2000/svg" xmlns:xlink="http://www.w3.org/1999/xlink" x="0px" y="0px"
	 viewBox="0 0 71 32" style="enable-background:new 0 0 71 32;" xml:space="preserve">
<style type="text/css">
	.st0{fill:#FFFFFF;}
</style>
<g>
	<path class="st0" d="M60.2,21.3c0.2,0,0.3,0,0.5,0c-0.2,0.5-0.6,1.4-0.6,1.4s-0.5,0-0.8,0c-12.6,0-38.4,0-38.8,0c0-0.5,0-0.9,0-1.4
		C20.7,21.3,52.6,21.3,60.2,21.3"/>
	<path class="st0" d="M33.6,16.5c0-0.6,0-1.2,0-1.8c0-0.2,0-0.5,0-0.5l-1,0l0-1.7h1l0-1.7l1.6,0l0,1.7h1.2l0,1.7l-1.2,0
		c0,0,0,0.3,0,0.5c0,0.9,0,1.8,0,2.7c0,0.4,0.2,0.5,0.5,0.5c0.2,0,0.7,0,0.7,0l0,1.6c0,0-0.2,0-0.4,0c-0.5,0-0.9,0-1.4,0
		c-0.7,0-1.1-0.5-1.1-1.2C33.6,17.6,33.6,17,33.6,16.5C33.6,16.5,33.6,16.5,33.6,16.5"/>
	<path class="st0" d="M46,19.4l-1.7,0l0-9.5c0,0,1.4,0,1.7,0c0,0.2,0,0.4,0,0.6C46.1,12.8,46,19.4,46,19.4"/>
	<path class="st0" d="M31.9,16c0,0.9,0,1.9,0,2.8c0,0.4-0.2,0.6-0.5,0.6c-1.3,0-1.1,0-1.1-1.1c0-1.7,0-3.5,0-5.2
		c0-0.4,0.1-0.6,0.6-0.6c1.2,0,1.2,0,1.1,1.1C31.9,14.4,31.9,15.2,31.9,16C31.9,16,31.9,16,31.9,16"/>
	<rect x="30.2" y="9.9" class="st0" width="1.7" height="1.7"/>
	<path class="st0" d="M54.8,14.7c0-1.4,0-2.8,0-4.2c0-0.4,0.1-0.5,0.5-0.5c1.6,0,3.1,0,4.7,0c1,0,1.8,0.8,1.9,1.8
		c0.1,0.9,0.1,1.7-0.5,2.4c-0.2,0.3,0,0.5,0.1,0.7c0.9,1,0.9,2.9,0,3.9c-0.4,0.4-0.9,0.7-1.5,0.7c-1.6,0-3.1,0-4.7,0
		c-0.4,0-0.5-0.2-0.5-0.5C54.8,17.5,54.8,16.1,54.8,14.7 M58.4,15.5L58.4,15.5c-0.4,0-0.8,0-1.2,0c-0.3,0-0.5,0.1-0.5,0.5
		c0,0.4,0,0.8,0,1.3c0,0.3,0.1,0.5,0.4,0.5c0.8,0,1.6,0,2.5,0c0.5,0,0.8-0.5,0.8-1.2c0-0.6-0.4-0.9-0.9-0.9
		C59.1,15.5,58.8,15.5,58.4,15.5 M58.3,13.7L58.3,13.7c0.3,0,0.6,0,0.9,0c0.7,0,0.9-0.3,1-0.9c0-0.6-0.3-1-0.9-1.1c-0.3,0-0.7,0-1,0
		c-1.6,0-1.4-0.2-1.4,1.5c0,0.4,0.2,0.6,0.6,0.5C57.7,13.7,58,13.7,58.3,13.7"/>
	<path class="st0" d="M47.1,14.7c0-1.4,0-4.7,0-4.7s3.3,0,4.6,0c1.4,0.1,2.3,1,2.4,2.3c0.1,0.9,0.1,1.9-0.4,2.8
		c-0.4,0.7-1.1,1-1.8,1c-0.7,0-2.8,0-2.8,0l0,3.3l-2,0C47.1,19.4,47.1,16.1,47.1,14.7 M49,11.7v2.8c0,0,1.7,0,2.4,0
		c0.4,0,0.7-0.2,0.8-0.5c0.2-0.6,0.3-1.2,0.1-1.8c-0.1-0.3-0.5-0.4-0.8-0.4C51.1,11.7,49,11.7,49,11.7"/>
	<path class="st0" d="M64.7,10l1.5,2.7l1.5-2.7l1.9,0l-2.4,4.7l2.3,4.7h-1.9l-1.4-2.7l-3.3,6.2l-2,0c0,0,1.9-3.6,2.7-5.2
		c0.5-0.9,1.5-3,1.5-3L62.8,10L64.7,10z"/>
	<path class="st0" d="M24.1,19.3c-0.4-0.1-0.6-0.3-0.7-0.6c-0.3-1-0.6-2-0.9-3C22,14.2,20.7,10,20.7,10h2l2.3,7.6
		c0.1,0.2,0.3,0.2,0.4,0l2.2-7.7h2c0,0-2.5,8.2-2.6,8.4c-0.2,0.7-0.5,1-1.2,1C25.5,19.4,24.4,19.4,24.1,19.3"/>
	<path class="st0" d="M43.4,16.8c0,0.7,0,1.4,0,2.1c0,0.4-0.2,0.6-0.6,0.6c-1.2,0-2.5,0-3.7,0c-1.1,0-1.3-0.3-1.6-1.3
		c-0.2-0.7-0.1-1.5,0.3-2.2c0.2-0.4,0.6-0.6,1.1-0.6c0.6,0,1.2,0,1.8,0c0.2,0,0.4,0,0.6-0.1c0.2-0.1,0.5-0.2,0.5-0.6
		c0-0.3-0.3-0.5-0.6-0.5c-0.9,0-1.8,0-2.7,0c-0.7,0-0.7,0-0.7-0.7c0-0.1,0-0.3,0-0.4c0-0.3,0.1-0.5,0.4-0.5c1.2,0,2.3,0,3.5,0
		c1,0,1.6,0.2,1.7,1.4C43.3,14.7,43.4,16.8,43.4,16.8 M40.4,17.9L40.4,17.9c0.3,0,0.6,0,0.9,0c0.2,0,0.4,0,0.4,0l0-1.1
		c0,0-0.3,0-0.4,0c-0.6,0-1.3,0-1.9,0c-0.3,0-0.6,0.1-0.6,0.5c0,0.4,0.2,0.6,0.6,0.6C39.8,17.9,40.1,17.9,40.4,17.9"/>
	<path class="st0" d="M20.5,26.3c0,0-16.9-11,0.2-18.8c0,0-15.4,1.8-11.1,12.9c0,0-10.2-4.3-0.8-14.6c0,0-13.7,5.2-4.3,14
		C4.6,19.7,9.5,24.8,20.5,26.3"/>
	<polygon class="st0" points="69.6,10.9 67.8,14.7 69.8,18.6 68.3,14.8 	"/>
	<polygon class="st0" points="69.4,12.9 68.5,14.7 69.5,16.6 68.8,14.8 	"/>
</g>
</svg>
